<?xml version="1.0" encoding="UTF-8" standalone="no"?>
<!-- Created with Inkscape (http://www.inkscape.org/) -->

<svg
   xmlns:dc="http://purl.org/dc/elements/1.1/"
   xmlns:cc="http://creativecommons.org/ns#"
   xmlns:rdf="http://www.w3.org/1999/02/22-rdf-syntax-ns#"
   xmlns:svg="http://www.w3.org/2000/svg"
   xmlns="http://www.w3.org/2000/svg"
   xmlns:sodipodi="http://sodipodi.sourceforge.net/DTD/sodipodi-0.dtd"
   xmlns:inkscape="http://www.inkscape.org/namespaces/inkscape"
   width="744.09448819"
   height="1052.3622047"
   id="svg3037"
   version="1.1"
   inkscape:version="0.48.5 r10040"
   sodipodi:docname="New document 4">
  <defs
     id="defs3039" />
  <sodipodi:namedview
     id="base"
     pagecolor="#ffffff"
     bordercolor="#666666"
     borderopacity="1.0"
     inkscape:pageopacity="0.0"
     inkscape:pageshadow="2"
     inkscape:zoom="2.6207317"
     inkscape:cx="281.34016"
     inkscape:cy="362.85714"
     inkscape:document-units="px"
     inkscape:current-layer="layer1"
     showgrid="false"
     inkscape:window-width="993"
     inkscape:window-height="563"
     inkscape:window-x="38"
     inkscape:window-y="62"
     inkscape:window-maximized="0" />
  <metadata
     id="metadata3042">
    <rdf:RDF>
      <cc:Work
         rdf:about="">
        <dc:format>image/svg+xml</dc:format>
        <dc:type
           rdf:resource="http://purl.org/dc/dcmitype/StillImage" />
        <dc:title></dc:title>
      </cc:Work>
    </rdf:RDF>
  </metadata>
  <g
     inkscape:label="Layer 1"
     inkscape:groupmode="layer"
     id="layer1">
    <rect
       style="fill:#ececec;fill-opacity:1;stroke:none"
       id="rect3069"
       width="60.670094"
       height="55.328049"
       x="250.31177"
       y="661.25" />
    <g
       id="layer1-8"
       transform="matrix(0.078125,0,0,0.078125,255.64193,667.17395)"
       style="fill:#999999">
      <path
         d="M 297.29747,550.86823 C 283.52243,535.43191 249.1268,505.33855 220.86277,483.99412 137.11867,420.75228 125.72108,411.5999 91.719238,380.29088 29.03471,322.57071 2.413622,264.58086 2.5048478,185.95124 2.5493594,147.56739 5.1656152,132.77929 15.914734,110.15398 34.151433,71.768267 61.014996,43.244667 95.360052,25.799457 119.68545,13.443675 131.6827,7.9542046 172.30448,7.7296236 c 42.49329,-0.234834 51.43863,4.7197234 76.43471,18.4518354 30.42451,16.714318 61.7399,52.435708 68.21323,77.810591 l 3.9981,15.6724 9.85963,-21.584508 c 55.71617,-121.972928 233.59836,-120.148052 295.50229,3.031588 19.63767,39.07605 21.79364,122.51317 4.38012,169.51287 -22.71527,61.30937 -65.38001,108.05053 -164.00634,179.67658 -64.68082,46.97364 -137.88474,118.04586 -142.98067,128.02803 -5.91548,11.58753 -0.28216,1.8159 -26.40808,-27.46078 z"
         id="path2417"
         style="fill:#999999"
         inkscape:connector-curvature="0" />
      <g
         transform="translate(129.28571,-64.285714)"
         id="g2221"
         style="fill:#999999" />
    </g>
  </g>
</svg>
